<svg width="94" height="94" viewBox="0 0 94 94" fill="none" xmlns="http://www.w3.org/2000/svg">
<g clip-path="url(#clip0_19895_1671)">
<circle cx="47" cy="47" r="47" fill="white"/>
<path d="M45.5937 24.8689C33.944 24.8689 24.5 34.7773 24.5 47C24.5 59.2227 33.944 69.1311 45.5937 69.1311C46.0663 69.1311 46.5352 69.1148 47 69.0827V69.1311H69.5L77 77H46.0625V76.996C45.9066 76.9987 45.7503 77 45.5937 77C29.8019 77 17 63.5685 17 47C17 30.4315 29.8019 17 45.5937 17C61.3856 17 74.1875 30.4315 74.1875 47C74.1875 52.1625 72.9447 57.0204 70.7558 61.2623H61.7237C64.8209 57.4105 66.6875 52.4339 66.6875 47C66.6875 34.7773 57.2435 24.8689 45.5937 24.8689Z" fill="black"/>
<path d="M37.1562 34.7049C35.3441 34.7049 33.875 36.2462 33.875 38.1475V47C33.875 48.9013 35.3441 50.4426 37.1562 50.4426C38.9684 50.4426 40.4375 48.9013 40.4375 47V38.1475C40.4375 36.2462 38.9684 34.7049 37.1562 34.7049Z" fill="black"/>
<path d="M49.3437 34.7049C47.5316 34.7049 46.0625 36.2462 46.0625 38.1475V47C46.0625 48.9013 47.5316 50.4426 49.3437 50.4426C51.1559 50.4426 52.625 48.9013 52.625 47V38.1475C52.625 36.2462 51.1559 34.7049 49.3437 34.7049Z" fill="black"/>
</g>
<defs>
<clipPath id="clip0_19895_1671">
<rect width="94" height="94" fill="white"/>
</clipPath>
</defs>
</svg>
