<svg width="94" height="94" viewBox="0 0 94 94" fill="none" xmlns="http://www.w3.org/2000/svg">
<g clip-path="url(#clip0_19892_1474)">
<path d="M0 47C0 21.0426 21.0426 0 47 0V0C72.9574 0 94 21.0426 94 47V94H47C21.0426 94 0 72.9574 0 47V47Z" fill="white"/>
<path d="M45.1719 18.2295C30.0272 18.2295 17.75 31.1105 17.75 47C17.75 62.8895 30.0272 75.7705 45.1719 75.7705C45.7862 75.7705 46.3958 75.7493 47 75.7076V75.7705H76.25L86 86H45.7813V85.9949C45.5785 85.9983 45.3754 86 45.1719 86C24.6424 86 8 68.5391 8 47C8 25.4609 24.6424 8 45.1719 8C65.7013 8 82.3438 25.4609 82.3438 47C82.3438 53.7112 80.7281 60.0265 77.8825 65.541H66.1408C70.1672 60.5336 72.5938 54.0641 72.5938 47C72.5938 31.1105 60.3166 18.2295 45.1719 18.2295Z" fill="black"/>
<path d="M34.2031 31.0164C31.8473 31.0164 29.9375 33.0201 29.9375 35.4918V47C29.9375 49.4717 31.8473 51.4754 34.2031 51.4754C36.559 51.4754 38.4688 49.4717 38.4688 47V35.4918C38.4688 33.0201 36.559 31.0164 34.2031 31.0164Z" fill="black"/>
<path d="M50.0469 31.0164C47.691 31.0164 45.7813 33.0201 45.7813 35.4918V47C45.7813 49.4717 47.691 51.4754 50.0469 51.4754C52.4027 51.4754 54.3125 49.4717 54.3125 47V35.4918C54.3125 33.0201 52.4027 31.0164 50.0469 31.0164Z" fill="black"/>
</g>
<defs>
<clipPath id="clip0_19892_1474">
<rect width="94" height="94" fill="white"/>
</clipPath>
</defs>
</svg>
