<svg width="679" height="94" viewBox="0 0 679 94" fill="none" xmlns="http://www.w3.org/2000/svg">
<g clip-path="url(#clip0_19843_1436)">
<g clip-path="url(#clip1_19843_1436)">
<path d="M72.2979 0C73.2951 0 74.2519 0.396426 74.957 1.10156L92.8984 19.043C93.6036 19.7481 94 20.7049 94 21.7021V78.5479C93.7449 77.2917 93.4665 76.0222 93.1611 74.7402C88.2775 54.0354 77.4104 30.7927 62.7393 14.4902C47.2777 -0.77882 31.9629 10.2393 31.9629 10.2393C31.9279 10.2495 19.1271 14.0217 20.1592 34.501C20.9849 50.8994 22.4441 68.5695 20.043 78.8535C19.4401 81.4372 18.5984 83.5551 17.4434 85.0547C15.5427 87.5351 13.2353 90.5951 11.2852 94H3.75977C1.68336 93.9999 0.00012661 92.3166 0 90.2402V3.75977C0.000127745 1.68336 1.68336 0.00012661 3.75977 0H72.2979ZM33.0625 18.2334C35.1294 21.4858 40.5042 25.2402 46.4365 28.5635C46.006 29.2828 45.7126 30.0529 45.6113 30.9141C45.5962 31.0609 45.667 31.2131 45.8037 31.2891C45.986 31.3901 46.2142 31.3239 46.3154 31.1416L46.3408 31.1016C46.6954 30.4632 47.1509 29.8295 47.6221 29.2773C47.6356 29.2639 47.6496 29.2508 47.6631 29.2373C48.98 29.9531 50.3019 30.6404 51.6289 31.2988C50.4487 31.8865 49.5825 32.7228 49.0557 33.8018C48.306 35.3316 48.5338 36.7605 48.5439 36.8213C48.5643 36.9478 48.651 37.0589 48.7725 37.1045C48.8197 37.1247 48.8669 37.1348 48.9141 37.1348C48.9951 37.1347 49.0692 37.1092 49.1367 37.0586C49.7649 36.5875 50.6063 36.3041 51.584 35.9697L52.0703 35.8076V35.8027C52.0837 35.7994 52.0969 35.7938 52.1104 35.7871C52.4075 35.7027 52.6662 35.6086 52.8857 35.5039C53.8989 35.1341 55.1654 34.5769 56.2646 33.498C60.9102 35.5802 64.9278 37.0438 66.8428 37.373L67.4355 37.7129C67.5367 37.7667 67.6397 37.7752 67.7441 37.7383C68.7725 40.4383 69.3661 43.0267 69.5586 45.4785V45.4834C69.7612 48.1076 69.5125 50.5804 68.8691 52.8652L68.9854 52.8145L68.7881 61.9336L68.707 72.0049C68.7205 75.3619 68.7676 78.7192 68.8486 82.0762L69.0664 87.1113C69.188 88.7882 69.2692 90.4655 69.4414 92.1475L69.4463 92.167C69.4564 92.2631 69.5377 92.3348 69.6338 92.335C69.7401 92.335 69.826 92.2487 69.8262 92.1475V77.3291C70.3074 78.4435 71.245 79.3297 72.5215 80.0439C72.8508 81.199 73.3479 82.6735 74.5283 85.3281C75.2375 86.9187 76.2654 88.3625 77.5723 89.6289C77.5588 89.6828 77.5589 89.7371 77.5723 89.791C77.5801 89.8251 77.9 91.171 78.2559 94H31.5107L28.3105 90.334C31.0918 89.1283 33.7965 87.6837 36.1016 85.6016C37.6214 84.3097 38.8223 82.6985 39.7393 80.9355L39.4355 83.3018L39.2432 84.7715C39.2389 84.8127 38.9445 87.6816 39.6738 85.2773C39.8899 84.5682 40.0921 83.857 40.2812 83.1445C40.3893 82.7663 40.4844 82.388 40.5654 82.0098C41.3405 78.2053 41.9021 74.1122 41.8008 74.6289C41.8042 74.5716 41.8011 74.5159 41.791 74.4619C50.3881 73.4031 57.3338 68.0279 61.1992 64.3145C62.4657 63.3553 63.6715 62.2375 64.8164 60.9609C64.9531 60.809 64.943 60.5706 64.7861 60.4287C64.6342 60.2919 64.3958 60.307 64.2539 60.459C61.3511 63.7063 58.0224 65.8949 54.3799 66.9639C45.6461 69.527 32.8542 63.3467 27.4336 48.8936C22.2561 35.0633 27.5253 22.808 33.0625 18.2334ZM50.4287 49.3291C50.292 49.2785 50.125 49.3085 50.0186 49.4248L48.4121 51.1729L46.2139 51.4922C46.067 51.5124 45.9398 51.6186 45.9043 51.7705L44.7344 56.5635V56.6953C44.7378 56.7324 44.7478 56.7681 44.7646 56.8018C44.768 56.8118 44.7736 56.822 44.7803 56.832C44.7938 56.8623 44.8109 56.891 44.8311 56.918C44.8411 56.9246 44.8513 56.9302 44.8613 56.9336C44.895 56.9605 44.9338 56.9822 44.9775 56.999L45.0635 57.0293C45.5853 57.2066 46.1179 57.303 46.665 57.4043C47.212 57.4718 47.7657 57.5059 48.3262 57.5059C49.4507 57.516 50.5957 57.2829 51.6797 56.8574C52.7586 56.4218 53.7519 55.7529 54.5371 54.9121C55.3375 54.0863 55.9199 53.0979 56.2998 52.0645L56.3252 51.9834C56.3286 51.9699 56.3286 51.9544 56.3252 51.9375C56.3352 51.9342 56.3439 51.9327 56.3506 51.9326L56.3252 51.9229C56.3505 51.776 56.3053 51.6291 56.1787 51.543C56.0166 51.4467 55.8138 51.4871 55.6973 51.6289L53.4688 50.5908C52.4657 50.1298 51.4318 49.7141 50.4287 49.3291ZM55.2715 52.2422C54.2178 53.7112 52.8347 54.9421 51.1631 55.6006C49.5573 56.254 47.7843 56.4218 46.0215 56.3408C46.5484 55.8849 47.0987 55.4571 47.6729 55.0586C48.5003 54.498 49.3634 54.0061 50.2617 53.584C51.1582 53.1535 52.1005 52.8347 53.0527 52.5967C53.5323 52.4751 54.0171 52.387 54.5068 52.333L54.8721 52.2822C55.0001 52.2755 55.1333 52.2624 55.2715 52.2422ZM50.3984 50.1191C51.2089 50.4281 51.994 50.7119 52.8096 50.9551L54.3701 51.4209C53.8485 51.4361 53.3319 51.5124 52.8203 51.6035C51.7718 51.7909 50.7583 52.1507 49.7959 52.5762C48.8367 53.0287 47.9342 53.5691 47.0898 54.1973C46.6441 54.5417 46.2187 54.9085 45.8135 55.2969L46.5732 52.1963L48.6553 51.8975C48.7397 51.8873 48.8147 51.8488 48.8789 51.7812L50.3984 50.1191ZM33.8379 49.0859C33.3566 49.0859 33.3516 49.8408 33.8379 49.8408C34.3186 49.8404 34.3186 49.0864 33.8379 49.0859ZM33.8066 32.3623C32.363 32.2611 30.9095 32.819 29.79 33.6699C28.6704 34.5463 27.8494 35.7013 27.5049 37.0742C27.4796 37.1806 27.4996 37.3022 27.5654 37.3984C27.692 37.5706 27.9352 37.6109 28.1074 37.4844L28.1533 37.4541C29.153 36.7314 30.1211 36.1045 31.0566 35.5742C32.0139 35.0627 32.956 34.7436 33.9893 34.4043C35.0126 34.0851 36.2795 33.9283 37.4092 34.3184L37.835 34.4453C37.9815 34.4808 38.0625 34.5667 38.2041 34.6426C38.454 34.8013 38.6972 34.9735 38.9336 35.1592C39.3946 35.5442 39.8309 35.9543 40.1855 36.4355C40.9151 37.3778 41.4266 38.4424 41.7002 39.5215C41.9585 40.6156 42.0743 41.6595 42.0439 42.7891C42.0389 44.0149 41.9988 45.2155 42.0596 46.4971C42.0798 46.8264 42.085 47.1556 42.166 47.5508C42.2217 47.8953 42.404 48.5188 42.8701 48.8633C43.3207 49.1771 43.6805 49.2124 44.0146 49.2832C44.3388 49.3372 44.6617 49.3712 44.9824 49.3848L45.0889 49.3896C45.256 49.3947 45.4083 49.2883 45.459 49.1211C45.5146 48.9287 45.4033 48.7259 45.2109 48.665C44.6233 48.4979 43.9595 48.3614 43.5947 48.0879C43.2756 47.8346 43.3162 47.1405 43.3213 46.5479C43.3669 45.3169 43.4322 44.0655 43.4424 42.8193C43.4576 41.558 43.2703 40.2711 42.7891 39.0908C42.3078 37.9155 41.6184 36.8205 40.7471 35.8984C39.8708 34.9817 38.9592 34.0797 37.7031 33.5479C37.1156 33.249 36.5025 33.0161 35.8643 32.7578C35.2158 32.5602 34.526 32.3927 33.8066 32.3623ZM37.8398 48.2754C37.3586 48.2754 37.3586 49.0254 37.8398 49.0254C38.3259 49.0252 38.3259 48.2756 37.8398 48.2754ZM35.7773 46.6494C35.2915 46.6498 35.2915 47.398 35.7773 47.3984C36.2586 47.3984 36.2586 46.6494 35.7773 46.6494ZM39.2783 45.707C38.7971 45.7071 38.7971 46.4619 39.2783 46.4619C39.7647 46.4619 39.7647 45.707 39.2783 45.707ZM40.8037 39.9717C40.7227 39.8805 38.7058 37.6775 35.6357 38.5742C35.4163 38.6249 35.1915 38.7005 34.9619 38.8018C33.6955 39.3185 32.6571 40.1902 31.877 41.3857C31.0614 42.642 30.8383 43.7669 30.8281 43.8125C30.808 43.9289 30.8335 44.0457 30.9043 44.1367C30.9819 44.2311 31.0817 44.2828 31.2031 44.293C31.3685 44.3031 31.5338 44.3086 31.6992 44.3086C32.9656 44.3086 34.2086 44.0213 35.4277 43.4473C35.4835 43.427 35.5651 43.3964 35.6006 43.3711C36.4972 42.9506 37.2925 42.4539 38.0625 41.9727C38.9693 41.4053 39.8207 40.8691 40.6211 40.626C40.7528 40.5905 40.854 40.4832 40.8945 40.3516C40.9298 40.22 40.8948 40.0729 40.8037 39.9717ZM32.4189 42.0537C32.7381 42.6059 33.2701 43.0113 33.9033 43.1582C33.189 43.376 32.4795 43.498 31.75 43.498C31.8665 43.1434 32.0795 42.6211 32.4189 42.0537ZM37.085 39.1719C38.3006 39.1719 39.2225 39.7035 39.7393 40.0986C39.0503 40.4026 38.3561 40.8333 37.6367 41.2842C37.2585 41.5239 36.8701 41.7602 36.4717 41.9932C36.6489 41.669 36.7656 41.2994 36.7656 40.9043C36.7656 40.2761 36.5174 39.7084 36.1172 39.293C36.4583 39.2153 36.781 39.1753 37.085 39.1719ZM56.8574 41.1426C56.3763 41.1427 56.3763 41.8915 56.8574 41.8916C57.3387 41.8916 57.3438 41.1426 56.8574 41.1426ZM53.043 40.4531C52.5617 40.4531 52.5566 41.2031 53.043 41.2031C53.524 41.203 53.524 40.4533 53.043 40.4531ZM58.5088 38.7158C58.4448 38.7327 58.389 38.7644 58.3418 38.8115C58.3215 38.8318 58.3015 38.8543 58.2812 38.8779C58.2441 38.9117 58.2186 38.9503 58.2051 38.9941C58.1814 39.0414 58.1699 39.0909 58.1699 39.1416C58.17 39.1921 58.1815 39.2394 58.2051 39.2832C58.2186 39.3304 58.2442 39.3706 58.2812 39.4043C58.3083 39.4246 58.3338 39.4456 58.3574 39.4658C58.4147 39.4994 58.4791 39.5156 58.5498 39.5156C58.58 39.5123 58.612 39.5077 58.6455 39.501C58.7097 39.4841 58.7662 39.4516 58.8135 39.4043C58.8336 39.3842 58.8539 39.3639 58.874 39.3438C58.911 39.3101 58.9382 39.2697 58.9551 39.2227C58.9787 39.1788 58.9887 39.1307 58.9854 39.0801C58.9887 39.0262 58.9786 38.9774 58.9551 38.9336C58.9382 38.8863 58.9112 38.8453 58.874 38.8115C58.8504 38.7913 58.8248 38.7727 58.7979 38.7559C58.7405 38.7221 58.6779 38.7036 58.6104 38.7002C58.5766 38.7069 58.5426 38.7124 58.5088 38.7158ZM54.917 37.7021C54.8665 37.6988 54.8192 37.7089 54.7754 37.7324C54.7283 37.7492 54.688 37.7766 54.6543 37.8135C54.6171 37.8473 54.5916 37.8868 54.5781 37.9307C54.5545 37.9779 54.542 38.0266 54.542 38.0771C54.5487 38.1109 54.5542 38.1449 54.5576 38.1787C54.5745 38.2395 54.607 38.2936 54.6543 38.3408C54.6778 38.3609 54.7027 38.3813 54.7295 38.4014C54.7868 38.4351 54.8495 38.4521 54.917 38.4521H55.0439C55.0945 38.4555 55.1433 38.4454 55.1904 38.4219C55.2343 38.405 55.2738 38.378 55.3076 38.3408C55.3446 38.3071 55.3718 38.2684 55.3887 38.2246C55.4123 38.1773 55.4223 38.1278 55.4189 38.0771C55.4156 38.0434 55.4101 38.0093 55.4033 37.9756C55.3864 37.9116 55.3548 37.8573 55.3076 37.8135C55.284 37.7932 55.2585 37.7732 55.2314 37.7529C55.174 37.7192 55.1115 37.7022 55.0439 37.7021H54.917ZM49.6133 34.4092C49.9172 34.8854 50.3935 35.2455 50.9609 35.3975C50.353 35.6052 49.7646 35.818 49.2529 36.0967C49.2631 35.6711 49.3498 35.0576 49.6133 34.4092ZM55.5205 33.1582C54.8721 33.7408 54.1677 34.1414 53.499 34.4453C53.7523 34.0756 53.9091 33.6345 53.9092 33.1533C53.9058 32.8629 53.8518 32.5887 53.7471 32.332C54.3449 32.6157 54.9362 32.8914 55.5205 33.1582Z" fill="white"/>
</g>
<path d="M626.938 94C626.271 94 625.938 93.6667 625.938 93V51C625.938 50.3333 626.271 50 626.938 50H645.138C645.751 50 646.284 50.2267 646.737 50.68L651.658 55.6H653.138L658.057 50.68C658.511 50.2267 659.044 50 659.658 50H668.338C668.951 50 669.484 50.2267 669.938 50.68L677.938 58.68C678.391 59.1067 678.617 59.64 678.617 60.28V93C678.617 93.6667 678.284 94 677.617 94H666.938C666.271 94 665.938 93.6667 665.938 93V61.68C665.938 60.56 665.378 60 664.258 60H658.617V93C658.617 93.6667 658.284 94 657.617 94H646.938C646.271 94 645.938 93.6667 645.938 93V61.68C645.938 60.56 645.378 60 644.258 60H638.617V93C638.617 93.6667 638.284 94 637.617 94H626.938Z" fill="white"/>
<path d="M599.819 94C599.206 94 598.672 93.7733 598.219 93.32L590.219 85.32C589.766 84.8933 589.539 84.36 589.539 83.72V60.28C589.539 59.64 589.766 59.1067 590.219 58.68L598.219 50.68C598.672 50.2267 599.206 50 599.819 50H611.939C612.579 50 613.112 50.2267 613.539 50.68L621.539 58.68C621.992 59.1067 622.219 59.64 622.219 60.28V83.72C622.219 84.36 621.992 84.8933 621.539 85.32L613.539 93.32C613.112 93.7733 612.579 94 611.939 94H599.819ZM604.499 84.68H607.299C608.152 84.68 608.739 84.5067 609.059 84.16C609.379 83.8133 609.539 83.2 609.539 82.32V61.68C609.539 60.8 609.379 60.1867 609.059 59.84C608.739 59.4933 608.152 59.32 607.299 59.32H604.499C603.619 59.32 603.019 59.4933 602.699 59.84C602.379 60.1867 602.219 60.8 602.219 61.68V82.32C602.219 83.2 602.379 83.8133 602.699 84.16C603.019 84.5067 603.619 84.68 604.499 84.68Z" fill="white"/>
<path d="M534.391 94C533.724 94 533.391 93.6667 533.391 93V51C533.391 50.3333 533.724 50 534.391 50H552.591C553.204 50 553.737 50.2267 554.191 50.68L559.111 55.6H560.591L565.511 50.68C565.964 50.2267 566.497 50 567.111 50H575.791C576.404 50 576.937 50.2267 577.391 50.68L585.391 58.68C585.844 59.1067 586.071 59.64 586.071 60.28V93C586.071 93.6667 585.737 94 585.071 94H574.391C573.724 94 573.391 93.6667 573.391 93V61.68C573.391 60.56 572.831 60 571.711 60H566.071V93C566.071 93.6667 565.737 94 565.071 94H554.391C553.724 94 553.391 93.6667 553.391 93V61.68C553.391 60.56 552.831 60 551.711 60H546.071V93C546.071 93.6667 545.737 94 545.071 94H534.391Z" fill="white"/>
<path d="M517.219 93.6808C516.552 93.6808 516.219 93.3208 516.219 92.6008V79.8808C516.219 79.1608 516.552 78.8008 517.219 78.8008H530.019C530.685 78.8008 531.019 79.1608 531.019 79.8808V92.6008C531.019 93.3208 530.685 93.6808 530.019 93.6808H517.219Z" fill="white"/>
<path d="M476.375 94C475.375 94 474.875 93.5 474.875 92.5V78.82C474.875 77.9 475.175 77.3 475.775 77.02L487.955 70.6V68.5L475.775 61.9C475.175 61.58 474.875 60.94 474.875 59.98V39.88C474.875 39.56 474.915 39.26 474.995 38.98C475.075 38.66 475.295 38.36 475.655 38.08L488.435 28.72C488.715 28.56 489.015 28.4 489.335 28.24C489.655 28.08 489.995 28 490.355 28H508.955C509.955 28 510.455 28.5 510.455 29.5V42.88C510.455 43.4 510.415 43.82 510.335 44.14C510.295 44.46 510.075 44.72 509.675 44.92L498.455 50.98V53.02L509.435 59.02C510.115 59.34 510.455 59.94 510.455 60.82V80.2C510.455 81.2 510.115 82 509.435 82.6L497.675 93.22C497.035 93.74 496.235 94 495.275 94H476.375Z" fill="white"/>
<path d="M440.047 94C439.047 94 438.547 93.5 438.547 92.5V29.5C438.547 28.5 439.047 28 440.047 28H455.527C456.207 28 456.867 28.34 457.507 29.02L460.447 31.96L463.927 28.72C464.487 28.24 465.127 28 465.847 28H470.347C471.347 28 471.847 28.5 471.847 29.5V49.9C471.847 50.54 471.787 50.98 471.667 51.22C471.587 51.42 471.367 51.64 471.007 51.88L460.507 59.02V92.5C460.507 93.5 460.007 94 459.007 94H440.047Z" fill="white"/>
<path d="M409.003 94C408.723 94 408.423 93.96 408.103 93.88C407.823 93.8 407.523 93.68 407.203 93.52L396.223 88.3L385.603 83.2C384.883 82.88 384.523 82.08 384.523 80.8V43.42C384.523 42.46 384.843 41.66 385.483 41.02L397.483 29.02C398.163 28.34 398.963 28 399.883 28H418.123C419.043 28 419.843 28.34 420.523 29.02L432.523 41.02C433.163 41.66 433.483 42.46 433.483 43.42V68.02H407.323V70.3L412.303 72.52L423.823 75.82C424.263 75.86 424.483 76.48 424.483 77.68V92.5C424.483 93.5 423.983 94 422.983 94H409.003ZM409.783 56.62H409.903C411.423 56.62 412.563 56.18 413.323 55.3C414.123 54.42 414.523 53.12 414.523 51.4V51.22C414.523 49.5 414.123 48.2 413.323 47.32C412.563 46.44 411.423 46 409.903 46H409.723C408.323 46 407.223 46.44 406.423 47.32C405.663 48.2 405.283 49.5 405.283 51.22V51.4C405.283 53.12 405.663 54.42 406.423 55.3C407.183 56.18 408.303 56.62 409.783 56.62Z" fill="white"/>
<path d="M332 93.9995C331 93.9995 330.5 93.4995 330.5 92.4995V15.5195C330.5 14.5195 331 14.0195 332 14.0195H350.96C351.96 14.0195 352.46 14.5195 352.46 15.5195V32.0195L355.46 29.0195C356.14 28.3395 356.94 27.9995 357.86 27.9995H364.1C365.02 27.9995 365.82 28.3395 366.5 29.0195L378.5 41.0195C379.14 41.6595 379.46 42.4595 379.46 43.4195V78.5795C379.46 79.5395 379.14 80.3395 378.5 80.9795L366.5 92.9795C365.82 93.6595 365.02 93.9995 364.1 93.9995H332ZM352.46 74.0195H354.98C355.78 74.0195 356.4 73.7995 356.84 73.3595C357.28 72.9195 357.5 72.2995 357.5 71.4995V50.4995C357.5 49.6995 357.3 49.0795 356.9 48.6395C356.5 48.1995 355.9 47.9795 355.1 47.9795H354.86C354.1 47.9795 353.5 48.1995 353.06 48.6395C352.66 49.0795 352.46 49.6995 352.46 50.4995V74.0195Z" fill="white"/>
<path d="M251.023 94C250.023 94 249.523 93.5 249.523 92.5V29.5C249.523 28.5 250.023 28 251.023 28H277.123C278.043 28 278.843 28.34 279.523 29.02L286.903 36.4H289.123L296.503 29.02C297.183 28.34 297.983 28 298.903 28H310.123C311.043 28 311.843 28.34 312.523 29.02L324.523 41.02C325.163 41.66 325.483 42.46 325.483 43.42V92.5C325.483 93.5 324.983 94 323.983 94H305.023C304.023 94 303.523 93.5 303.523 92.5V52.48C303.523 50.84 302.683 50.02 301.003 50.02H298.483V92.5C298.483 93.5 297.983 94 296.983 94H278.023C277.023 94 276.523 93.5 276.523 92.5V52.48C276.523 50.84 275.683 50.02 274.003 50.02H271.483V92.5C271.483 93.5 270.983 94 269.983 94H251.023Z" fill="white"/>
<path d="M219.98 94C219.7 94 219.4 93.96 219.08 93.88C218.8 93.8 218.5 93.68 218.18 93.52L207.2 88.3L196.58 83.2C195.86 82.88 195.5 82.08 195.5 80.8V43.42C195.5 42.46 195.82 41.66 196.46 41.02L208.46 29.02C209.14 28.34 209.94 28 210.86 28H229.1C230.02 28 230.82 28.34 231.5 29.02L243.5 41.02C244.14 41.66 244.46 42.46 244.46 43.42V68.02H218.3V70.3L223.28 72.52L234.8 75.82C235.24 75.86 235.46 76.48 235.46 77.68V92.5C235.46 93.5 234.96 94 233.96 94H219.98ZM220.76 56.62H220.88C222.4 56.62 223.54 56.18 224.3 55.3C225.1 54.42 225.5 53.12 225.5 51.4V51.22C225.5 49.5 225.1 48.2 224.3 47.32C223.54 46.44 222.4 46 220.88 46H220.7C219.3 46 218.2 46.44 217.4 47.32C216.64 48.2 216.26 49.5 216.26 51.22V51.4C216.26 53.12 216.64 54.42 217.4 55.3C218.16 56.18 219.28 56.62 220.76 56.62Z" fill="white"/>
<path d="M116.023 94C115.023 94 114.523 93.5 114.523 92.5V29.5C114.523 28.5 115.023 28 116.023 28H142.123C143.043 28 143.843 28.34 144.523 29.02L151.903 36.4H154.123L161.503 29.02C162.183 28.34 162.983 28 163.903 28H175.123C176.043 28 176.843 28.34 177.523 29.02L189.523 41.02C190.163 41.66 190.483 42.46 190.483 43.42V92.5C190.483 93.5 189.983 94 188.983 94H170.023C169.023 94 168.523 93.5 168.523 92.5V52.48C168.523 50.84 167.683 50.02 166.003 50.02H163.483V92.5C163.483 93.5 162.983 94 161.983 94H143.023C142.023 94 141.523 93.5 141.523 92.5V52.48C141.523 50.84 140.683 50.02 139.003 50.02H136.483V92.5C136.483 93.5 135.983 94 134.983 94H116.023Z" fill="white"/>
</g>
<defs>
<clipPath id="clip0_19843_1436">
<rect width="679" height="94" fill="white"/>
</clipPath>
<clipPath id="clip1_19843_1436">
<rect width="94" height="94" fill="white"/>
</clipPath>
</defs>
</svg>
