<svg width="94" height="94" viewBox="0 0 94 94" fill="none" xmlns="http://www.w3.org/2000/svg">
<g clip-path="url(#clip0_19843_1500)">
<g clip-path="url(#clip1_19843_1500)">
<path d="M3 89C3 90.1046 3.89543 91 5 91H89C90.1046 91 91 90.1046 91 89V23.5127C91 22.4518 90.5783 21.4337 89.8281 20.6836L73.3164 4.17188C72.5663 3.42173 71.5482 3 70.4873 3V0C72.3437 0 74.1248 0.737167 75.4375 2.0498L91.9502 18.5625C93.2628 19.8752 94 21.6563 94 23.5127V89C94 91.7614 91.7614 94 89 94H5C2.23858 94 0 91.7614 0 89V5C0 2.23858 2.23858 0 5 0V3C3.89543 3 3 3.89543 3 5V89ZM70.4873 0V3H5V0H70.4873Z" fill="black"/>
<path d="M31.9629 10.239C31.9629 10.239 47.2777 -0.779058 62.7393 14.49C77.4104 30.7925 88.2775 54.0352 93.1611 74.74C93.8602 77.6749 94.4276 80.5427 94.8633 83.3425C94.9796 83.3274 95.0707 83.3522 95.1719 83.3826C95.2056 83.3927 95.2382 83.4042 95.2686 83.4177C99.7621 84.0105 105.406 84.958 109.61 87.0046C122.331 93.1749 113.537 121.508 113.015 123.156L108.774 142.761C108.741 142.883 108.683 142.99 108.603 143.081C111.313 150.655 111.383 157.261 108.784 162.707C105.618 169.338 99.4173 172.277 96.7881 173.264C96.7678 173.302 96.7493 173.344 96.7324 173.391C96.7019 173.489 93.9481 182.476 101.267 221.048C101.586 222.719 101.854 224.381 102.072 225.981C102.108 226.25 101.991 226.514 101.783 226.671C102.675 233.185 103.121 240.263 103.126 248.282C103.126 248.49 102.959 248.657 102.751 248.657C102.543 248.657 102.376 248.49 102.376 248.282C102.366 240.374 101.941 233.393 101.069 226.965C85.9573 232.061 69.9938 241.246 53.6152 254.291C53.4735 254.402 53.3182 254.458 53.1494 254.458C52.9316 254.458 52.7184 254.362 52.5664 254.184C38.7057 237.436 25.9139 225.52 14.5508 218.767C12.185 217.354 9.78896 216.138 7.41309 215.125C6.54679 225.784 8.0668 236.742 9.54102 247.345L9.59668 247.751C9.62687 247.953 9.47981 248.145 9.27734 248.176C9.0747 248.196 8.88196 248.059 8.85156 247.851L8.7959 247.446C7.44836 237.76 6.07564 227.785 6.49609 217.972C5.11309 226.939 4.30283 236.225 5.30078 244.553L7.01758 248.024C7.11378 248.212 7.03793 248.434 6.85059 248.525C6.79659 248.552 6.74096 248.566 6.68359 248.566C6.54681 248.566 6.41449 248.49 6.34863 248.358L4.61621 244.863C4.60946 244.85 4.60645 244.836 4.60645 244.822C4.59626 244.797 4.57048 244.776 4.56543 244.746C3.40541 235.242 4.58636 224.518 6.30371 214.436L6.26758 214.401C6.08532 214.229 5.9995 213.975 6.04492 213.727C6.82003 209.259 7.67619 205.018 8.50195 200.925C9.69244 194.997 10.7359 189.825 11.126 185.904H-7.53223C-7.55249 185.999 -7.57251 186.095 -7.59277 186.193C-7.82579 187.551 -8.05896 188.913 -8.21094 190.281C-8.26497 190.747 -8.31352 191.213 -8.35742 191.679C-8.5094 194.238 -8.56042 196.801 -8.42871 199.375C-8.07915 210.702 -6.75144 221.955 -5.46973 233.221C-4.69465 238.135 -4.00128 243.065 -3.88477 248.07C-3.88818 248.093 -3.89584 248.115 -3.90918 248.136C-3.91253 248.159 -3.92124 248.181 -3.93457 248.201C-3.95483 248.218 -3.97734 248.23 -4.00098 248.237C-4.0178 248.25 -4.03647 248.261 -4.05664 248.267C-4.05992 248.264 -4.06313 248.263 -4.06641 248.262C-4.0665 248.265 -4.06832 248.267 -4.07129 248.267C-4.09155 248.264 -4.11255 248.255 -4.13281 248.242C-4.15961 248.239 -4.18298 248.23 -4.20312 248.217C-4.21323 248.2 -4.22177 248.181 -4.22852 248.161C-4.2454 248.141 -4.25789 248.117 -4.26465 248.09C-4.59393 244.604 -4.96832 241.124 -5.3584 237.638C-5.66909 235.643 -6.00035 233.648 -6.35156 231.656C-6.82269 228.926 -7.31427 226.205 -7.72461 223.449C-7.9475 222.056 -7.98769 220.678 -8.13965 219.295L-8.53027 215.166C-9.06221 209.659 -9.58868 204.122 -9.59375 198.539C-9.58868 195.747 -9.44709 192.956 -9.12793 190.175C-8.98608 188.781 -8.75255 187.398 -8.51953 186.02C-8.50942 185.96 -8.49784 185.901 -8.48438 185.844C-8.59581 185.803 -8.69239 185.739 -8.77344 185.651C-8.91524 185.489 -8.98625 185.276 -8.96094 185.063C-8.59618 181.902 -8.05367 179.075 -7.29883 176.435C-6.99491 175.366 -6.71653 174.237 -6.45312 173.082C-5.37914 165.108 -4.59327 157.078 -3.98535 149.044C-3.31663 140.766 -2.8506 132.462 -2.44531 124.154C-2.36932 121.327 -2.29877 118.86 -2.19238 116.92C-2.18222 116.843 -2.14659 116.534 -2.06055 116.049C-2.05717 116.008 -2.05566 115.967 -2.05566 115.927C-2.0523 115.9 -2.04828 115.872 -2.04492 115.845C-1.26976 110.491 1.24751 105.486 4.83398 101.514C5.73232 100.522 6.69502 99.5889 7.72168 98.7175C8.27885 98.2211 8.88693 97.7905 9.50488 97.3904C9.52171 97.3803 9.53731 97.3702 9.55078 97.3601C11.719 92.6082 14.9357 88.3271 17.4434 85.0544C18.5984 83.5549 19.4401 81.437 20.043 78.8533C22.4441 68.5692 20.9849 50.8992 20.1592 34.5007C19.1271 14.0214 31.9279 10.2493 31.9629 10.239ZM-7.64844 216.604C-7.50153 218.945 -7.24846 221.275 -6.93945 223.6C-7.18937 221.27 -7.42554 218.938 -7.64844 216.604ZM18.4717 146.308C17.1696 153.715 13.5529 174.749 12.7119 184.972C12.7422 185.016 12.7709 185.058 12.7979 185.098C15.0978 180.372 17.8441 176.825 21.1826 174.272V150.437C20.1086 149.255 19.2046 147.879 18.4717 146.308ZM8.31934 117.827C8.17748 117.589 7.86389 117.518 7.63086 117.66C7.51273 117.731 7.43611 117.833 7.40234 117.969C7.37197 118.104 7.39295 118.23 7.46387 118.348L16.6836 133.47C16.5873 134.438 16.2584 138.952 17.7275 143.669C18.5786 146.404 19.8706 148.694 21.5625 150.487C23.4065 152.443 25.7573 153.831 28.5537 154.606C30.2052 155.062 31.9073 155.295 33.6094 155.295C44.8899 155.295 53.4409 145.282 53.5293 145.178C53.7065 144.971 53.6761 144.652 53.4688 144.474C53.3607 144.387 53.2371 144.347 53.0986 144.357C52.9602 144.371 52.8466 144.43 52.7588 144.535C52.643 144.673 41.8969 157.269 28.8223 153.638C26.2031 152.914 24.0092 151.622 22.2969 149.799C20.7062 148.117 19.4901 145.954 18.6846 143.37C17.1293 138.37 17.6922 133.465 17.6973 133.415C17.7107 133.3 17.6882 133.193 17.6309 133.095L8.31934 117.827ZM68.0078 145.3C67.8356 145.082 67.5164 145.046 67.3037 145.223C67.0859 145.396 67.0502 145.711 67.2275 145.928C67.4475 146.205 72.7056 152.626 79.999 152.626C80.1375 152.626 80.2781 152.623 80.4199 152.62C80.6934 152.61 80.9115 152.377 80.9014 152.098C80.8963 151.83 80.6725 151.617 80.3838 151.617C80.2591 151.62 80.1344 151.622 80.0098 151.622C73.1301 151.622 68.0585 145.36 68.0078 145.3ZM33.0625 18.2332C27.5253 22.8078 22.2561 35.063 27.4336 48.8933C32.8542 63.3465 45.6461 69.5268 54.3799 66.9636C58.0224 65.8947 61.3511 63.7061 64.2539 60.4587C64.3958 60.3068 64.6342 60.2917 64.7861 60.4285C64.943 60.5703 64.9531 60.8088 64.8164 60.9607C63.6715 62.2373 62.4657 63.3551 61.1992 64.3142C57.3338 68.0276 50.3881 73.4029 41.791 74.4617C41.8011 74.5156 41.8042 74.5714 41.8008 74.6287C41.9021 74.1119 41.3405 78.205 40.5654 82.0095C40.4844 82.3877 40.3893 82.7661 40.2812 83.1443C40.0921 83.8568 39.8899 84.568 39.6738 85.2771C38.9445 87.6813 39.2389 84.8125 39.2432 84.7712L39.4355 83.3015L39.7393 80.9353C38.8223 82.6983 37.6214 84.3095 36.1016 85.6013C33.7965 87.6834 31.0918 89.128 28.3105 90.3337L62.293 129.265L78.1699 106.124C78.3573 105.845 78.7074 105.729 79.0215 105.83C79.0553 105.847 79.0878 105.864 79.1182 105.881C78.7686 94.8065 77.5875 89.8566 77.5723 89.7908C77.5589 89.7369 77.5588 89.6825 77.5723 89.6287C76.2654 88.3623 75.2375 86.9185 74.5283 85.3279C73.3479 82.6733 72.8508 81.1988 72.5215 80.0437C71.245 79.3294 70.3074 78.4433 69.8262 77.3289V92.1472C69.826 92.2484 69.7401 92.3347 69.6338 92.3347C69.5377 92.3346 69.4564 92.2629 69.4463 92.1668L69.4414 92.1472C69.2692 90.4653 69.188 88.7879 69.0664 87.1111L68.8486 82.0759C68.7676 78.7189 68.7205 75.3616 68.707 72.0046L68.7881 61.9334L68.9854 52.8142L68.8691 52.865C69.5125 50.5802 69.7612 48.1074 69.5586 45.4832V45.4783C69.3661 43.0265 68.7725 40.4381 67.7441 37.738C67.6397 37.775 67.5367 37.7665 67.4355 37.7127L66.8428 37.3728C64.9278 37.0435 60.9102 35.5799 56.2646 33.4978C55.1654 34.5767 53.8989 35.1339 52.8857 35.5037C52.6662 35.6084 52.4075 35.7024 52.1104 35.7869C52.0969 35.7936 52.0837 35.7991 52.0703 35.8025V35.8074L51.584 35.9695C50.6063 36.3038 49.7649 36.5873 49.1367 37.0584C49.0692 37.109 48.9951 37.1345 48.9141 37.1345C48.8669 37.1345 48.8197 37.1245 48.7725 37.1043C48.651 37.0587 48.5643 36.9476 48.5439 36.8211C48.5338 36.7603 48.306 35.3314 49.0557 33.8015C49.5825 32.7226 50.4487 31.8862 51.6289 31.2986C50.3019 30.6401 48.98 29.9529 47.6631 29.2371C47.6496 29.2505 47.6356 29.2636 47.6221 29.2771C47.1509 29.8293 46.6954 30.463 46.3408 31.1013L46.3154 31.1414C46.2142 31.3236 45.986 31.3899 45.8037 31.2888C45.667 31.2129 45.5962 31.0607 45.6113 30.9138C45.7126 30.0527 46.006 29.2825 46.4365 28.5632C40.5042 25.2399 35.1294 21.4856 33.0625 18.2332ZM50.0186 49.4246C50.125 49.3083 50.292 49.2782 50.4287 49.3289C51.4318 49.7139 52.4657 50.1296 53.4688 50.5906L55.6973 51.6287C55.8138 51.4868 56.0166 51.4465 56.1787 51.5427C56.3053 51.6289 56.3505 51.7757 56.3252 51.9226L56.3506 51.9324C56.3439 51.9324 56.3352 51.9339 56.3252 51.9373C56.3286 51.9541 56.3286 51.9697 56.3252 51.9832L56.2998 52.0642C55.9199 53.0977 55.3375 54.0861 54.5371 54.9119C53.7519 55.7527 52.7586 56.4216 51.6797 56.8572C50.5957 57.2826 49.4507 57.5158 48.3262 57.5056C47.7657 57.5056 47.212 57.4716 46.665 57.4041C46.1179 57.3027 45.5853 57.2064 45.0635 57.0291L44.9775 56.9988C44.9338 56.982 44.895 56.9602 44.8613 56.9334C44.8513 56.93 44.8411 56.9244 44.8311 56.9177C44.8109 56.8908 44.7938 56.8621 44.7803 56.8318C44.7736 56.8217 44.768 56.8116 44.7646 56.8015C44.7478 56.7678 44.7378 56.7321 44.7344 56.6951V56.5632L45.9043 51.7703C45.9398 51.6184 46.067 51.5122 46.2139 51.4919L48.4121 51.1726L50.0186 49.4246ZM55.2715 52.2419C55.1333 52.2622 55.0001 52.2752 54.8721 52.282L54.5068 52.3328C54.0171 52.3868 53.5323 52.4749 53.0527 52.5964C52.1005 52.8345 51.1582 53.1532 50.2617 53.5837C49.3634 54.0059 48.5003 54.4977 47.6729 55.0584C47.0987 55.4569 46.5484 55.8846 46.0215 56.3406C47.7843 56.4216 49.5573 56.2538 51.1631 55.6003C52.8347 54.9418 54.2178 53.7109 55.2715 52.2419ZM48.8789 51.781C48.8147 51.8486 48.7397 51.8871 48.6553 51.8972L46.5732 52.1961L45.8135 55.2966C46.2187 54.9083 46.6441 54.5415 47.0898 54.197C47.9342 53.5688 48.8367 53.0285 49.7959 52.5759C50.7583 52.1505 51.7718 51.7907 52.8203 51.6033C53.3319 51.5121 53.8485 51.4359 54.3701 51.4207L52.8096 50.9548C51.994 50.7117 51.2089 50.4279 50.3984 50.1189L48.8789 51.781ZM33.8379 49.0857C34.3186 49.0862 34.3186 49.8401 33.8379 49.8406C33.3516 49.8406 33.3566 49.0857 33.8379 49.0857ZM33.8066 32.3621C34.526 32.3925 35.2158 32.56 35.8643 32.7576C36.5025 33.0159 37.1156 33.2488 37.7031 33.5476C38.9592 34.0795 39.8708 34.9814 40.7471 35.8982C41.6184 36.8202 42.3078 37.9153 42.7891 39.0906C43.2703 40.2709 43.4576 41.5577 43.4424 42.8191C43.4322 44.0653 43.3669 45.3166 43.3213 46.5476C43.3162 47.1403 43.2756 47.8344 43.5947 48.0877C43.9595 48.3612 44.6233 48.4976 45.2109 48.6648C45.4033 48.7256 45.5146 48.9284 45.459 49.1209C45.4083 49.288 45.256 49.3945 45.0889 49.3894L44.9824 49.3845C44.6617 49.371 44.3388 49.337 44.0146 49.283C43.6805 49.2121 43.3207 49.1769 42.8701 48.863C42.404 48.5186 42.2217 47.895 42.166 47.5505C42.085 47.1554 42.0798 46.8261 42.0596 46.4968C41.9988 45.2152 42.0389 44.0147 42.0439 42.7888C42.0743 41.6592 41.9585 40.6154 41.7002 39.5212C41.4266 38.4422 40.9151 37.3776 40.1855 36.4353C39.8309 35.9541 39.3946 35.5439 38.9336 35.1589C38.6972 34.9732 38.454 34.801 38.2041 34.6423C38.0625 34.5665 37.9815 34.4806 37.835 34.4451L37.4092 34.3181C36.2795 33.928 35.0126 34.0849 33.9893 34.4041C32.956 34.7434 32.0139 35.0625 31.0566 35.574C30.1211 36.1042 29.153 36.7311 28.1533 37.4539L28.1074 37.4841C27.9352 37.6107 27.692 37.5704 27.5654 37.3982C27.4996 37.302 27.4796 37.1803 27.5049 37.074C27.8494 35.7011 28.6704 34.5461 29.79 33.6697C30.9095 32.8188 32.363 32.2609 33.8066 32.3621ZM37.8398 48.2752C38.3259 48.2754 38.3259 49.0249 37.8398 49.0252C37.3586 49.0252 37.3586 48.2752 37.8398 48.2752ZM35.7773 46.6492C36.2586 46.6492 36.2586 47.3982 35.7773 47.3982C35.2915 47.3978 35.2915 46.6496 35.7773 46.6492ZM39.2783 45.7068C39.7647 45.7068 39.7647 46.4617 39.2783 46.4617C38.7971 46.4616 38.7971 45.7068 39.2783 45.7068ZM35.6357 38.574C38.7058 37.6773 40.7227 39.8803 40.8037 39.9714C40.8948 40.0727 40.9298 40.2197 40.8945 40.3513C40.854 40.483 40.7528 40.5903 40.6211 40.6257C39.8207 40.8689 38.9693 41.4051 38.0625 41.9724C37.2925 42.4537 36.4972 42.9504 35.6006 43.3709C35.5651 43.3962 35.4835 43.4268 35.4277 43.447C34.2086 44.0211 32.9656 44.3084 31.6992 44.3084C31.5338 44.3083 31.3685 44.3029 31.2031 44.2927C31.0817 44.2826 30.9819 44.2308 30.9043 44.1365C30.8335 44.0454 30.808 43.9286 30.8281 43.8123C30.8383 43.7667 31.0614 42.6418 31.877 41.3855C32.6571 40.19 33.6955 39.3183 34.9619 38.8015C35.1915 38.7002 35.4163 38.6246 35.6357 38.574ZM32.4189 42.0535C32.0795 42.6209 31.8665 43.1432 31.75 43.4978C32.4795 43.4978 33.189 43.3758 33.9033 43.158C33.2701 43.011 32.7381 42.6057 32.4189 42.0535ZM37.085 39.1716C36.781 39.175 36.4583 39.2151 36.1172 39.2927C36.5174 39.7081 36.7656 40.2759 36.7656 40.9041C36.7656 41.2991 36.6489 41.6688 36.4717 41.9929C36.8701 41.7599 37.2585 41.5237 37.6367 41.2839C38.3561 40.8331 39.0503 40.4024 39.7393 40.0984C39.2225 39.7033 38.3006 39.1717 37.085 39.1716ZM56.8574 41.1423C57.3438 41.1423 57.3387 41.8914 56.8574 41.8914C56.3763 41.8912 56.3763 41.1425 56.8574 41.1423ZM53.043 40.4529C53.524 40.4531 53.524 41.2027 53.043 41.2029C52.5566 41.2029 52.5617 40.4529 53.043 40.4529ZM58.6104 38.7C58.6779 38.7033 58.7405 38.7219 58.7979 38.7556C58.8248 38.7725 58.8504 38.791 58.874 38.8113C58.9112 38.8451 58.9382 38.8861 58.9551 38.9334C58.9786 38.9771 58.9887 39.026 58.9854 39.0798C58.9887 39.1305 58.9787 39.1785 58.9551 39.2224C58.9382 39.2695 58.911 39.3098 58.874 39.3435L58.8135 39.4041C58.7662 39.4513 58.7097 39.4839 58.6455 39.5007C58.612 39.5074 58.58 39.512 58.5498 39.5154C58.4791 39.5154 58.4147 39.4992 58.3574 39.4656C58.3338 39.4453 58.3083 39.4243 58.2812 39.4041C58.2442 39.3703 58.2186 39.3301 58.2051 39.283C58.1815 39.2392 58.17 39.1919 58.1699 39.1414C58.1699 39.0907 58.1814 39.0412 58.2051 38.9939C58.2186 38.95 58.2441 38.9114 58.2812 38.8777C58.3015 38.854 58.3215 38.8315 58.3418 38.8113C58.389 38.7641 58.4448 38.7325 58.5088 38.7156C58.5426 38.7122 58.5766 38.7067 58.6104 38.7ZM55.0439 37.7019C55.1115 37.7019 55.174 37.7189 55.2314 37.7527C55.2585 37.7729 55.284 37.793 55.3076 37.8132C55.3548 37.857 55.3864 37.9114 55.4033 37.9753C55.4101 38.0091 55.4156 38.0432 55.4189 38.0769C55.4223 38.1276 55.4123 38.1771 55.3887 38.2244C55.3718 38.2681 55.3446 38.3069 55.3076 38.3406C55.2738 38.3777 55.2343 38.4047 55.1904 38.4216C55.1433 38.4451 55.0945 38.4553 55.0439 38.4519H54.917C54.8495 38.4519 54.7868 38.4349 54.7295 38.4011C54.7027 38.381 54.6778 38.3607 54.6543 38.3406C54.607 38.2933 54.5745 38.2392 54.5576 38.1785C54.5542 38.1447 54.5487 38.1107 54.542 38.0769C54.542 38.0263 54.5545 37.9776 54.5781 37.9304C54.5916 37.8865 54.6171 37.847 54.6543 37.8132C54.688 37.7763 54.7283 37.749 54.7754 37.7322C54.8192 37.7086 54.8665 37.6986 54.917 37.7019H55.0439ZM49.6133 34.4089C49.3498 35.0574 49.2631 35.6709 49.2529 36.0964C49.7646 35.8178 50.353 35.6049 50.9609 35.3972C50.3935 35.2452 49.9172 34.8851 49.6133 34.4089ZM53.7471 32.3318C53.8518 32.5885 53.9058 32.8626 53.9092 33.1531C53.9091 33.6343 53.7523 34.0753 53.499 34.4451C54.1677 34.1411 54.8721 33.7405 55.5205 33.158C54.9362 32.8912 54.3449 32.6155 53.7471 32.3318Z" fill="black"/>
</g>
</g>
<defs>
<clipPath id="clip0_19843_1500">
<rect width="94" height="94" fill="white"/>
</clipPath>
<clipPath id="clip1_19843_1500">
<rect width="94" height="94" fill="white"/>
</clipPath>
</defs>
</svg>
