<svg width="94" height="94" viewBox="0 0 94 94" fill="none" xmlns="http://www.w3.org/2000/svg">
<g clip-path="url(#clip0_19892_1467)">
<path d="M44.7969 12.3279C26.5456 12.3279 11.75 27.8511 11.75 47C11.75 66.1489 26.5456 81.6721 44.7969 81.6721C45.5372 81.6721 46.2718 81.6466 47 81.5963V81.6721H82.25L94 94H45.5312V93.9938C45.2869 93.9979 45.0421 94 44.7969 94C20.0562 94 0 72.9574 0 47C0 21.0426 20.0562 0 44.7969 0C69.5375 0 89.5938 21.0426 89.5938 47C89.5938 55.0878 87.6466 62.6986 84.2174 69.3443H70.0672C74.9194 63.3098 77.8438 55.5132 77.8438 47C77.8438 27.8511 63.0482 12.3279 44.7969 12.3279Z" fill="white"/>
<path d="M31.5781 27.7377C28.739 27.7377 26.4375 30.1524 26.4375 33.1311V47C26.4375 49.9787 28.739 52.3934 31.5781 52.3934C34.4172 52.3934 36.7188 49.9787 36.7188 47V33.1311C36.7188 30.1524 34.4172 27.7377 31.5781 27.7377Z" fill="white"/>
<path d="M50.6719 27.7377C47.8328 27.7377 45.5312 30.1524 45.5312 33.1311V47C45.5312 49.9787 47.8328 52.3934 50.6719 52.3934C53.511 52.3934 55.8125 49.9787 55.8125 47V33.1311C55.8125 30.1524 53.511 27.7377 50.6719 27.7377Z" fill="white"/>
</g>
<defs>
<clipPath id="clip0_19892_1467">
<rect width="94" height="94" fill="white"/>
</clipPath>
</defs>
</svg>
