<svg width="679" height="94" viewBox="0 0 679 94" fill="none" xmlns="http://www.w3.org/2000/svg">
<g clip-path="url(#clip0_19843_1450)">
<g clip-path="url(#clip1_19843_1450)">
<path d="M3 89C3 90.1046 3.89543 91 5 91H89C90.1046 91 91 90.1046 91 89V23.5127C91 22.4518 90.5783 21.4337 89.8281 20.6836L73.3164 4.17188C72.5663 3.42173 71.5482 3 70.4873 3V0C72.3437 0 74.1248 0.737167 75.4375 2.0498L91.9502 18.5625C93.2628 19.8752 94 21.6563 94 23.5127V89C94 91.7614 91.7614 94 89 94H5C2.23858 94 0 91.7614 0 89V5C0 2.23858 2.23858 0 5 0V3C3.89543 3 3 3.89543 3 5V89ZM70.4873 0V3H5V0H70.4873Z" fill="black"/>
<path d="M31.9629 10.2396C31.9892 10.2208 47.291 -0.766314 62.7393 14.4896C77.4105 30.7922 88.2765 54.0357 93.1602 74.7406C93.8592 77.6754 94.4266 80.5425 94.8623 83.3422C94.9788 83.327 95.0706 83.3528 95.1719 83.3832C95.2054 83.3933 95.2374 83.4049 95.2676 83.4183C99.7612 84.0111 105.406 84.9586 109.61 87.0053C122.331 93.176 113.536 121.51 113.015 123.157L108.774 142.762C108.741 142.884 108.683 142.99 108.602 143.081C111.312 150.655 111.383 157.261 108.784 162.707C105.618 169.339 99.4174 172.277 96.7881 173.265C96.7679 173.302 96.7492 173.344 96.7324 173.391C96.7071 173.472 93.9412 182.439 101.267 221.047C101.586 222.719 101.853 224.381 102.071 225.982C102.107 226.25 101.991 226.514 101.783 226.671C102.675 233.186 103.12 240.263 103.125 248.283C103.125 248.49 102.958 248.657 102.751 248.658C102.543 248.658 102.376 248.49 102.376 248.283C102.366 240.375 101.94 233.394 101.068 226.965C85.9565 232.062 69.9936 241.246 53.6152 254.291C53.4734 254.403 53.3173 254.458 53.1484 254.458C52.9308 254.458 52.7183 254.362 52.5664 254.185C38.7057 237.437 25.9139 225.521 14.5508 218.768C12.185 217.355 9.78896 216.139 7.41309 215.125C6.5468 225.784 8.06584 236.742 9.54004 247.345L9.5957 247.75C9.62608 247.953 9.47979 248.146 9.27734 248.176C9.0747 248.196 8.88196 248.06 8.85156 247.852L8.7959 247.447C7.44836 237.761 6.07567 227.786 6.49609 217.973C5.11311 226.94 4.30182 236.226 5.2998 244.554L7.01758 248.025C7.1135 248.212 7.03773 248.435 6.85059 248.526C6.79668 248.553 6.74086 248.567 6.68359 248.567C6.54681 248.567 6.41449 248.49 6.34863 248.359L4.61621 244.863C4.60958 244.849 4.60645 244.836 4.60645 244.823C4.59631 244.797 4.5705 244.777 4.56543 244.746C3.40536 235.243 4.5854 224.518 6.30273 214.437L6.26758 214.401C6.08535 214.229 5.99935 213.975 6.04492 213.727C6.82001 209.259 7.67621 205.018 8.50195 200.925C9.69244 194.998 10.7359 189.826 11.126 185.905H-7.53223C-7.55248 185.999 -7.57252 186.096 -7.59277 186.194C-7.82579 187.551 -8.05897 188.914 -8.21094 190.282C-8.26497 190.748 -8.31449 191.214 -8.3584 191.68C-8.51037 194.238 -8.56042 196.802 -8.42871 199.375C-8.07915 210.703 -6.75239 221.954 -5.4707 233.221C-4.69561 238.135 -4.0013 243.065 -3.88477 248.07C-3.88814 248.093 -3.89665 248.116 -3.91016 248.136C-3.91357 248.16 -3.9221 248.181 -3.93555 248.202C-3.95571 248.218 -3.97747 248.23 -4.00098 248.237C-4.01785 248.25 -4.0364 248.261 -4.05664 248.268C-4.06002 248.265 -4.06401 248.262 -4.06738 248.262C-4.06738 248.265 -4.06889 248.268 -4.07227 248.268C-4.09242 248.265 -4.11266 248.256 -4.13281 248.243C-4.15983 248.239 -4.18384 248.231 -4.2041 248.217C-4.2142 248.2 -4.22275 248.182 -4.22949 248.162C-4.24638 248.141 -4.25789 248.117 -4.26465 248.09C-4.59394 244.605 -4.96832 241.124 -5.3584 237.639C-5.66912 235.643 -6.00032 233.648 -6.35156 231.656C-6.82269 228.925 -7.31427 226.204 -7.72461 223.449C-7.94744 222.056 -7.98773 220.678 -8.13965 219.295L-8.53027 215.166C-9.0622 209.66 -9.58867 204.122 -9.59375 198.539C-9.58868 195.748 -9.44709 192.956 -9.12793 190.175C-8.98608 188.782 -8.75354 187.399 -8.52051 186.021C-8.5104 185.96 -8.49785 185.901 -8.48438 185.844C-8.59583 185.804 -8.69238 185.739 -8.77344 185.651C-8.91504 185.489 -8.98615 185.276 -8.96094 185.064C-8.59618 181.903 -8.05367 179.075 -7.29883 176.436C-6.99489 175.367 -6.71654 174.237 -6.45312 173.082C-5.37914 165.109 -4.59425 157.079 -3.98633 149.044C-3.31761 140.766 -2.85157 132.463 -2.44629 124.155C-2.3703 121.328 -2.29877 118.861 -2.19238 116.92C-2.18225 116.844 -2.14663 116.535 -2.06055 116.049C-2.05717 116.009 -2.05566 115.968 -2.05566 115.927C-2.05229 115.9 -2.04927 115.873 -2.0459 115.846C-1.27078 110.491 1.24725 105.486 4.83398 101.514C5.73229 100.521 6.69506 99.5894 7.72168 98.7181C8.27888 98.2217 8.8869 97.7912 9.50488 97.391C9.52177 97.3809 9.53727 97.3699 9.55078 97.3597C11.719 92.6081 14.9358 88.3276 17.4434 85.0551C18.5984 83.5555 19.4391 81.4376 20.042 78.8539C22.4433 68.5698 20.9849 50.8992 20.1592 34.5004C19.1259 13.9933 31.9629 10.2396 31.9629 10.2396ZM-7.64844 216.605C-7.50152 218.945 -7.24847 221.276 -6.93945 223.601C-7.18937 221.271 -7.42554 218.939 -7.64844 216.605ZM18.4717 146.308C17.1697 153.714 13.5529 174.749 12.7119 184.972C12.7423 185.016 12.7708 185.058 12.7979 185.099C15.0978 180.372 17.8441 176.826 21.1826 174.273V150.437C20.1086 149.255 19.2046 147.878 18.4717 146.308ZM8.31934 117.827C8.17745 117.589 7.86372 117.518 7.63086 117.66C7.51265 117.73 7.43612 117.834 7.40234 117.969C7.37204 118.104 7.39205 118.231 7.46289 118.349L16.6836 133.471C16.5873 134.439 16.2584 138.953 17.7275 143.669C18.5786 146.405 19.8705 148.694 21.5625 150.488C23.4065 152.443 25.7573 153.832 28.5537 154.607C30.2051 155.063 31.9074 155.295 33.6094 155.295C44.8889 155.295 53.4395 145.285 53.5293 145.179C53.7066 144.971 53.6755 144.651 53.4678 144.474C53.3599 144.386 53.2368 144.348 53.0986 144.358C52.9602 144.371 52.8466 144.431 52.7588 144.536C52.6416 144.675 41.8951 157.27 28.8213 153.639C26.2025 152.915 24.0091 151.623 22.2969 149.799C20.7062 148.117 19.4901 145.954 18.6846 143.37C17.1311 138.376 17.6899 133.477 17.6963 133.415C17.7098 133.301 17.6883 133.194 17.6309 133.096L8.31934 117.827ZM68.0078 145.3C67.8356 145.082 67.5165 145.047 67.3037 145.224C67.0859 145.396 67.0503 145.71 67.2275 145.928C67.4454 146.202 72.7039 152.625 79.999 152.625C80.1375 152.625 80.2781 152.624 80.4199 152.62C80.6932 152.61 80.9104 152.377 80.9004 152.099C80.8953 151.831 80.6726 151.618 80.3838 151.618C80.2589 151.621 80.1337 151.622 80.0088 151.622C73.1323 151.622 68.0628 145.366 68.0078 145.3ZM33.0625 18.2338C27.5254 22.8084 22.2563 35.0628 27.4336 48.893C32.8542 63.3463 45.646 69.5275 54.3799 66.9642C58.0224 65.8953 61.3511 63.7067 64.2539 60.4594C64.3957 60.3074 64.6332 60.2924 64.7852 60.4291C64.9421 60.5708 64.9528 60.8083 64.8164 60.9603C63.6715 62.237 62.4657 63.3557 61.1992 64.3148C57.3339 68.0282 50.388 73.4024 41.791 74.4613C41.8011 74.5153 41.8042 74.5719 41.8008 74.6293C41.9021 74.1125 41.3396 78.2055 40.5645 82.0101C40.4834 82.3884 40.3893 82.7667 40.2812 83.1449C40.0921 83.8575 39.889 84.5685 39.6729 85.2777C38.9383 87.6991 39.2422 84.7709 39.2422 84.7709L39.4355 83.3021L39.7393 80.9359C38.8223 82.6989 37.6214 84.3101 36.1016 85.6019C33.7967 87.6839 31.0916 89.1277 28.3105 90.3334L62.293 129.266L78.1699 106.124C78.3574 105.846 78.7074 105.729 79.0215 105.83C79.0551 105.847 79.0869 105.864 79.1172 105.881C78.7676 94.8069 77.5875 89.8572 77.5723 89.7914C77.5588 89.7374 77.5588 89.6833 77.5723 89.6293C76.2653 88.3628 75.2366 86.9192 74.5273 85.3285C73.347 82.6739 72.8508 81.1994 72.5215 80.0443C71.245 79.3301 70.3075 78.4439 69.8262 77.3295V92.1469C69.8262 92.2482 69.7402 92.3344 69.6338 92.3344C69.5375 92.3343 69.4564 92.2636 69.4463 92.1674L69.4414 92.1469C69.2692 90.4651 69.188 88.7884 69.0664 87.1117L68.8486 82.0756C68.7676 78.7186 68.7205 75.3612 68.707 72.0043L68.7881 61.933L68.9854 52.8148L68.8691 52.8656C69.5125 50.5808 69.7603 48.108 69.5576 45.4838V45.4789C69.3651 43.0269 68.7725 40.4379 67.7441 37.7377C67.6395 37.7748 67.5368 37.7662 67.4355 37.7123L66.8428 37.3734C64.9278 37.0441 60.9102 35.5796 56.2646 33.4974C55.1653 34.5765 53.8989 35.1345 52.8857 35.5043C52.6662 35.609 52.4076 35.703 52.1104 35.7875C52.097 35.7942 52.0837 35.7997 52.0703 35.8031V35.808L51.584 35.9701C50.6063 36.3044 49.7649 36.5879 49.1367 37.059C49.0693 37.1095 48.995 37.1351 48.9141 37.1351C48.8668 37.1351 48.8188 37.1251 48.7715 37.1049C48.65 37.0592 48.5642 36.9472 48.5439 36.8207C48.5332 36.7557 48.3071 35.3287 49.0557 33.8012C49.5825 32.7224 50.4488 31.8868 51.6289 31.2992C50.3016 30.6406 48.9793 29.9527 47.6621 29.2367C47.6486 29.2502 47.6356 29.2642 47.6221 29.2777C47.151 29.8298 46.6944 30.4627 46.3398 31.101L46.3145 31.142C46.2131 31.3242 45.9851 31.3897 45.8027 31.2885C45.6664 31.2125 45.5954 31.061 45.6104 30.9144C45.7117 30.0532 46.0059 29.2823 46.4365 28.5629C40.5044 25.2397 35.1296 21.4861 33.0625 18.2338ZM50.0186 49.4252C50.125 49.3089 50.292 49.2789 50.4287 49.3295C51.4316 49.7144 52.4649 50.1293 53.4678 50.5902L55.6973 51.6293C55.8138 51.4874 56.0166 51.4471 56.1787 51.5433C56.3051 51.6295 56.3505 51.7765 56.3252 51.9232L56.3506 51.933C56.3438 51.933 56.3353 51.9345 56.3252 51.9379C56.3286 51.9548 56.3286 51.9703 56.3252 51.9838L56.2998 52.0648C55.9199 53.0982 55.3374 54.0858 54.5371 54.9115C53.7519 55.7525 52.7587 56.4211 51.6797 56.8568C50.5956 57.2823 49.4508 57.5154 48.3262 57.5053C47.7655 57.5053 47.2112 57.4722 46.6641 57.4047C46.117 57.3034 45.5852 57.2069 45.0635 57.0297L44.9775 56.9994C44.9337 56.9825 44.8951 56.9599 44.8613 56.933C44.8512 56.9296 44.8402 56.9251 44.8301 56.9183C44.8098 56.8913 44.7938 56.8618 44.7803 56.8314C44.7735 56.8213 44.768 56.8113 44.7646 56.8012C44.7478 56.7675 44.7377 56.7318 44.7344 56.6947V56.5638L45.9043 51.7709C45.9398 51.6189 46.067 51.5128 46.2139 51.4926L48.4121 51.1732L50.0186 49.4252ZM55.2715 52.2416C55.133 52.2618 54.9994 52.2758 54.8711 52.2826L54.5068 52.3334C54.0171 52.3874 53.5323 52.4755 53.0527 52.5971C52.1005 52.8351 51.1583 53.1539 50.2617 53.5844C49.3634 54.0065 48.5003 54.4984 47.6729 55.059C47.0987 55.4575 46.5474 55.8843 46.0205 56.3402C47.7835 56.4213 49.5572 56.2545 51.1631 55.601C52.8349 54.9424 54.2177 53.7107 55.2715 52.2416ZM48.8779 51.7806C48.8138 51.8482 48.7397 51.8877 48.6553 51.8978L46.5732 52.1967L45.8135 55.2972C46.2187 54.9089 46.6441 54.5421 47.0898 54.1976C47.9341 53.5695 48.8359 53.0291 49.7949 52.5765C50.7574 52.151 51.7708 51.7913 52.8193 51.6039C53.331 51.5127 53.8483 51.4365 54.3701 51.4213L52.8096 50.9555C51.9941 50.7123 51.2089 50.4285 50.3984 50.1195L48.8779 51.7806ZM33.8369 49.0863C34.3182 49.0863 34.3182 49.8412 33.8369 49.8412C33.3509 49.8409 33.356 49.0866 33.8369 49.0863ZM33.8066 32.3627C34.5259 32.3931 35.2149 32.5606 35.8633 32.7582C36.5015 33.0165 37.1146 33.2494 37.7021 33.5482C38.9584 34.0801 39.8707 34.9819 40.7471 35.8988C41.6184 36.8208 42.3078 37.915 42.7891 39.0902C43.2703 40.2705 43.4575 41.5574 43.4424 42.8187C43.4323 44.065 43.3659 45.3172 43.3203 46.5482C43.3152 47.1409 43.2756 47.835 43.5947 48.0883C43.9595 48.3616 44.6226 48.4984 45.21 48.6654C45.4025 48.7262 45.5147 48.929 45.459 49.1215C45.4083 49.2886 45.256 49.3951 45.0889 49.39L44.9824 49.3851C44.6616 49.3716 44.3389 49.3376 44.0146 49.2836C43.6803 49.2127 43.3209 49.1767 42.8701 48.8627C42.4042 48.5183 42.2218 47.8957 42.166 47.5512C42.085 47.1561 42.0798 46.8266 42.0596 46.4974C41.9988 45.2157 42.0389 44.0144 42.0439 42.7885C42.0743 41.6589 41.9576 40.615 41.6992 39.5209C41.4256 38.442 40.914 37.3781 40.1846 36.4359C39.83 35.9548 39.3945 35.5445 38.9336 35.1596C38.6972 34.9738 38.454 34.8017 38.2041 34.643C38.0623 34.567 37.9809 34.4802 37.834 34.4447L37.4092 34.3187C36.2795 33.9287 35.0126 34.0855 33.9893 34.4047C32.9558 34.7441 32.0131 35.0629 31.0557 35.5746C30.1202 36.1048 29.153 36.7318 28.1533 37.4545L28.1074 37.4847C27.9352 37.6113 27.6921 37.5709 27.5654 37.3988C27.4996 37.3026 27.4796 37.1809 27.5049 37.0746C27.8493 35.7018 28.6697 34.5467 29.7891 33.6703C30.9086 32.8192 32.3629 32.2614 33.8066 32.3627ZM37.8389 48.2758C38.3252 48.2758 38.3252 49.0248 37.8389 49.0248C37.3582 49.0243 37.3582 48.2762 37.8389 48.2758ZM35.7773 46.6488C36.2586 46.6488 36.2586 47.3988 35.7773 47.3988C35.2911 47.3987 35.2911 46.6489 35.7773 46.6488ZM39.2783 45.7064C39.7643 45.7067 39.7643 46.4611 39.2783 46.4613C38.797 46.4613 38.797 45.7064 39.2783 45.7064ZM35.6357 38.5736C38.7042 37.6775 40.7199 39.8789 40.8027 39.9721C40.8939 40.0733 40.9299 40.2203 40.8945 40.3519C40.854 40.4837 40.7518 40.5899 40.6201 40.6254C39.8199 40.8686 38.9691 41.4058 38.0625 41.973C37.2926 42.4542 36.4971 42.951 35.6006 43.3715C35.5651 43.3968 35.4835 43.4274 35.4277 43.4476C34.2086 44.0217 32.9656 44.309 31.6992 44.309C31.5339 44.309 31.3685 44.3035 31.2031 44.2933C31.0816 44.2832 30.982 44.2307 30.9043 44.1361C30.8334 44.0449 30.8079 43.9284 30.8281 43.8119C30.839 43.7624 31.0628 42.6392 31.877 41.3851C32.6571 40.1898 33.6956 39.3188 34.9619 38.8021C35.1916 38.7008 35.4162 38.6243 35.6357 38.5736ZM32.4189 42.0541C32.0795 42.6215 31.8665 43.1438 31.75 43.4984C32.4795 43.4984 33.189 43.3764 33.9033 43.1586C33.2701 43.0117 32.7381 42.6063 32.4189 42.0541ZM37.085 39.1713C36.7811 39.1746 36.4582 39.2157 36.1172 39.2933C36.5173 39.7087 36.7656 40.2766 36.7656 40.9047C36.7655 41.2997 36.6489 41.6694 36.4717 41.9935C36.8701 41.7605 37.2585 41.5243 37.6367 41.2846C38.3561 40.8337 39.0503 40.403 39.7393 40.099C39.2226 39.7039 38.3006 39.1714 37.085 39.1713ZM56.8574 41.142C57.3435 41.1421 57.3385 41.8918 56.8574 41.892C56.3761 41.892 56.3761 41.142 56.8574 41.142ZM53.043 40.4535C53.5236 40.454 53.5236 41.203 53.043 41.2035C52.5566 41.2035 52.5617 40.4535 53.043 40.4535ZM58.6104 38.7006C58.6778 38.704 58.7405 38.7225 58.7979 38.7562C58.8248 38.7731 58.8504 38.7917 58.874 38.8119C58.9111 38.8456 58.9382 38.8868 58.9551 38.934C58.9785 38.9777 58.9887 39.0266 58.9854 39.0805C58.9887 39.131 58.9786 39.1783 58.9551 39.2221C58.9382 39.2693 58.9111 39.3104 58.874 39.3441C58.8538 39.3644 58.8328 39.3844 58.8125 39.4047C58.7652 39.4519 58.7096 39.4845 58.6455 39.5013C58.612 39.5081 58.58 39.5126 58.5498 39.516C58.4789 39.516 58.4139 39.499 58.3564 39.4652C58.333 39.4451 58.308 39.4248 58.2812 39.4047C58.2442 39.371 58.2186 39.3306 58.2051 39.2836C58.1814 39.2397 58.1689 39.1917 58.1689 39.141C58.169 39.0904 58.1815 39.0417 58.2051 38.9945C58.2186 38.9506 58.2441 38.9111 58.2812 38.8773C58.3014 38.8539 58.3217 38.832 58.3418 38.8119C58.3891 38.7647 58.4447 38.7321 58.5088 38.7152C58.5425 38.7118 58.5766 38.7073 58.6104 38.7006ZM55.0439 37.7025C55.1114 37.7026 55.1741 37.7196 55.2314 37.7533C55.2582 37.7734 55.2832 37.7937 55.3066 37.8138C55.3539 37.8577 55.3864 37.9118 55.4033 37.976C55.4101 38.0097 55.4156 38.0437 55.4189 38.0775C55.4223 38.1281 55.4113 38.1768 55.3877 38.224C55.3708 38.2679 55.3438 38.3074 55.3066 38.3412C55.273 38.3781 55.2342 38.4054 55.1904 38.4222C55.1433 38.4458 55.0944 38.4558 55.0439 38.4525H54.917C54.8495 38.4525 54.7869 38.4355 54.7295 38.4017C54.7025 38.3815 54.6769 38.3614 54.6533 38.3412C54.6062 38.294 54.5745 38.2397 54.5576 38.1791C54.5542 38.1454 54.5487 38.1113 54.542 38.0775C54.542 38.0269 54.5535 37.9773 54.5771 37.9301C54.5907 37.8863 54.6163 37.8475 54.6533 37.8138C54.6871 37.7767 54.7281 37.7497 54.7754 37.7328C54.8192 37.7092 54.8664 37.6991 54.917 37.7025H55.0439ZM49.6133 34.4096C49.3499 35.0578 49.2631 35.6705 49.2529 36.0961C49.7644 35.8175 50.3522 35.6055 50.96 35.3978C50.3928 35.2458 49.9172 34.8856 49.6133 34.4096ZM53.7471 32.3324C53.8517 32.5889 53.9058 32.8625 53.9092 33.1527C53.9092 33.634 53.7513 34.0749 53.498 34.4447C54.1667 34.1408 54.8712 33.741 55.5195 33.1586C54.9354 32.8918 54.3447 32.616 53.7471 32.3324Z" fill="black"/>
</g>
<path d="M626.938 94C626.271 94 625.938 93.6667 625.938 93V51C625.938 50.3333 626.271 50 626.938 50H645.138C645.751 50 646.284 50.2267 646.737 50.68L651.658 55.6H653.138L658.057 50.68C658.511 50.2267 659.044 50 659.658 50H668.338C668.951 50 669.484 50.2267 669.938 50.68L677.938 58.68C678.391 59.1067 678.617 59.64 678.617 60.28V93C678.617 93.6667 678.284 94 677.617 94H666.938C666.271 94 665.938 93.6667 665.938 93V61.68C665.938 60.56 665.378 60 664.258 60H658.617V93C658.617 93.6667 658.284 94 657.617 94H646.938C646.271 94 645.938 93.6667 645.938 93V61.68C645.938 60.56 645.378 60 644.258 60H638.617V93C638.617 93.6667 638.284 94 637.617 94H626.938Z" fill="black"/>
<path d="M599.819 94C599.206 94 598.672 93.7733 598.219 93.32L590.219 85.32C589.766 84.8933 589.539 84.36 589.539 83.72V60.28C589.539 59.64 589.766 59.1067 590.219 58.68L598.219 50.68C598.672 50.2267 599.206 50 599.819 50H611.939C612.579 50 613.112 50.2267 613.539 50.68L621.539 58.68C621.992 59.1067 622.219 59.64 622.219 60.28V83.72C622.219 84.36 621.992 84.8933 621.539 85.32L613.539 93.32C613.112 93.7733 612.579 94 611.939 94H599.819ZM604.499 84.68H607.299C608.152 84.68 608.739 84.5067 609.059 84.16C609.379 83.8133 609.539 83.2 609.539 82.32V61.68C609.539 60.8 609.379 60.1867 609.059 59.84C608.739 59.4933 608.152 59.32 607.299 59.32H604.499C603.619 59.32 603.019 59.4933 602.699 59.84C602.379 60.1867 602.219 60.8 602.219 61.68V82.32C602.219 83.2 602.379 83.8133 602.699 84.16C603.019 84.5067 603.619 84.68 604.499 84.68Z" fill="black"/>
<path d="M534.391 94C533.724 94 533.391 93.6667 533.391 93V51C533.391 50.3333 533.724 50 534.391 50H552.591C553.204 50 553.737 50.2267 554.191 50.68L559.111 55.6H560.591L565.511 50.68C565.964 50.2267 566.497 50 567.111 50H575.791C576.404 50 576.937 50.2267 577.391 50.68L585.391 58.68C585.844 59.1067 586.071 59.64 586.071 60.28V93C586.071 93.6667 585.737 94 585.071 94H574.391C573.724 94 573.391 93.6667 573.391 93V61.68C573.391 60.56 572.831 60 571.711 60H566.071V93C566.071 93.6667 565.737 94 565.071 94H554.391C553.724 94 553.391 93.6667 553.391 93V61.68C553.391 60.56 552.831 60 551.711 60H546.071V93C546.071 93.6667 545.737 94 545.071 94H534.391Z" fill="black"/>
<path d="M517.219 93.6808C516.552 93.6808 516.219 93.3208 516.219 92.6008V79.8808C516.219 79.1608 516.552 78.8008 517.219 78.8008H530.019C530.685 78.8008 531.019 79.1608 531.019 79.8808V92.6008C531.019 93.3208 530.685 93.6808 530.019 93.6808H517.219Z" fill="black"/>
<path d="M476.375 94C475.375 94 474.875 93.5 474.875 92.5V78.82C474.875 77.9 475.175 77.3 475.775 77.02L487.955 70.6V68.5L475.775 61.9C475.175 61.58 474.875 60.94 474.875 59.98V39.88C474.875 39.56 474.915 39.26 474.995 38.98C475.075 38.66 475.295 38.36 475.655 38.08L488.435 28.72C488.715 28.56 489.015 28.4 489.335 28.24C489.655 28.08 489.995 28 490.355 28H508.955C509.955 28 510.455 28.5 510.455 29.5V42.88C510.455 43.4 510.415 43.82 510.335 44.14C510.295 44.46 510.075 44.72 509.675 44.92L498.455 50.98V53.02L509.435 59.02C510.115 59.34 510.455 59.94 510.455 60.82V80.2C510.455 81.2 510.115 82 509.435 82.6L497.675 93.22C497.035 93.74 496.235 94 495.275 94H476.375Z" fill="black"/>
<path d="M440.047 94C439.047 94 438.547 93.5 438.547 92.5V29.5C438.547 28.5 439.047 28 440.047 28H455.527C456.207 28 456.867 28.34 457.507 29.02L460.447 31.96L463.927 28.72C464.487 28.24 465.127 28 465.847 28H470.347C471.347 28 471.847 28.5 471.847 29.5V49.9C471.847 50.54 471.787 50.98 471.667 51.22C471.587 51.42 471.367 51.64 471.007 51.88L460.507 59.02V92.5C460.507 93.5 460.007 94 459.007 94H440.047Z" fill="black"/>
<path d="M409.003 94C408.723 94 408.423 93.96 408.103 93.88C407.823 93.8 407.523 93.68 407.203 93.52L396.223 88.3L385.603 83.2C384.883 82.88 384.523 82.08 384.523 80.8V43.42C384.523 42.46 384.843 41.66 385.483 41.02L397.483 29.02C398.163 28.34 398.963 28 399.883 28H418.123C419.043 28 419.843 28.34 420.523 29.02L432.523 41.02C433.163 41.66 433.483 42.46 433.483 43.42V68.02H407.323V70.3L412.303 72.52L423.823 75.82C424.263 75.86 424.483 76.48 424.483 77.68V92.5C424.483 93.5 423.983 94 422.983 94H409.003ZM409.783 56.62H409.903C411.423 56.62 412.563 56.18 413.323 55.3C414.123 54.42 414.523 53.12 414.523 51.4V51.22C414.523 49.5 414.123 48.2 413.323 47.32C412.563 46.44 411.423 46 409.903 46H409.723C408.323 46 407.223 46.44 406.423 47.32C405.663 48.2 405.283 49.5 405.283 51.22V51.4C405.283 53.12 405.663 54.42 406.423 55.3C407.183 56.18 408.303 56.62 409.783 56.62Z" fill="black"/>
<path d="M332 93.9995C331 93.9995 330.5 93.4995 330.5 92.4995V15.5195C330.5 14.5195 331 14.0195 332 14.0195H350.96C351.96 14.0195 352.46 14.5195 352.46 15.5195V32.0195L355.46 29.0195C356.14 28.3395 356.94 27.9995 357.86 27.9995H364.1C365.02 27.9995 365.82 28.3395 366.5 29.0195L378.5 41.0195C379.14 41.6595 379.46 42.4595 379.46 43.4195V78.5795C379.46 79.5395 379.14 80.3395 378.5 80.9795L366.5 92.9795C365.82 93.6595 365.02 93.9995 364.1 93.9995H332ZM352.46 74.0195H354.98C355.78 74.0195 356.4 73.7995 356.84 73.3595C357.28 72.9195 357.5 72.2995 357.5 71.4995V50.4995C357.5 49.6995 357.3 49.0795 356.9 48.6395C356.5 48.1995 355.9 47.9795 355.1 47.9795H354.86C354.1 47.9795 353.5 48.1995 353.06 48.6395C352.66 49.0795 352.46 49.6995 352.46 50.4995V74.0195Z" fill="black"/>
<path d="M251.023 94C250.023 94 249.523 93.5 249.523 92.5V29.5C249.523 28.5 250.023 28 251.023 28H277.123C278.043 28 278.843 28.34 279.523 29.02L286.903 36.4H289.123L296.503 29.02C297.183 28.34 297.983 28 298.903 28H310.123C311.043 28 311.843 28.34 312.523 29.02L324.523 41.02C325.163 41.66 325.483 42.46 325.483 43.42V92.5C325.483 93.5 324.983 94 323.983 94H305.023C304.023 94 303.523 93.5 303.523 92.5V52.48C303.523 50.84 302.683 50.02 301.003 50.02H298.483V92.5C298.483 93.5 297.983 94 296.983 94H278.023C277.023 94 276.523 93.5 276.523 92.5V52.48C276.523 50.84 275.683 50.02 274.003 50.02H271.483V92.5C271.483 93.5 270.983 94 269.983 94H251.023Z" fill="black"/>
<path d="M219.98 94C219.7 94 219.4 93.96 219.08 93.88C218.8 93.8 218.5 93.68 218.18 93.52L207.2 88.3L196.58 83.2C195.86 82.88 195.5 82.08 195.5 80.8V43.42C195.5 42.46 195.82 41.66 196.46 41.02L208.46 29.02C209.14 28.34 209.94 28 210.86 28H229.1C230.02 28 230.82 28.34 231.5 29.02L243.5 41.02C244.14 41.66 244.46 42.46 244.46 43.42V68.02H218.3V70.3L223.28 72.52L234.8 75.82C235.24 75.86 235.46 76.48 235.46 77.68V92.5C235.46 93.5 234.96 94 233.96 94H219.98ZM220.76 56.62H220.88C222.4 56.62 223.54 56.18 224.3 55.3C225.1 54.42 225.5 53.12 225.5 51.4V51.22C225.5 49.5 225.1 48.2 224.3 47.32C223.54 46.44 222.4 46 220.88 46H220.7C219.3 46 218.2 46.44 217.4 47.32C216.64 48.2 216.26 49.5 216.26 51.22V51.4C216.26 53.12 216.64 54.42 217.4 55.3C218.16 56.18 219.28 56.62 220.76 56.62Z" fill="black"/>
<path d="M116.023 94C115.023 94 114.523 93.5 114.523 92.5V29.5C114.523 28.5 115.023 28 116.023 28H142.123C143.043 28 143.843 28.34 144.523 29.02L151.903 36.4H154.123L161.503 29.02C162.183 28.34 162.983 28 163.903 28H175.123C176.043 28 176.843 28.34 177.523 29.02L189.523 41.02C190.163 41.66 190.483 42.46 190.483 43.42V92.5C190.483 93.5 189.983 94 188.983 94H170.023C169.023 94 168.523 93.5 168.523 92.5V52.48C168.523 50.84 167.683 50.02 166.003 50.02H163.483V92.5C163.483 93.5 162.983 94 161.983 94H143.023C142.023 94 141.523 93.5 141.523 92.5V52.48C141.523 50.84 140.683 50.02 139.003 50.02H136.483V92.5C136.483 93.5 135.983 94 134.983 94H116.023Z" fill="black"/>
</g>
<defs>
<clipPath id="clip0_19843_1450">
<rect width="679" height="94" fill="white"/>
</clipPath>
<clipPath id="clip1_19843_1450">
<rect width="94" height="94" fill="white"/>
</clipPath>
</defs>
</svg>
