<svg width="418" height="94" viewBox="0 0 418 94" fill="none" xmlns="http://www.w3.org/2000/svg">
<g clip-path="url(#clip0_19892_1484)">
<path d="M44.7969 12.3279C26.5456 12.3279 11.75 27.8511 11.75 47C11.75 66.1489 26.5456 81.6721 44.7969 81.6721C45.5372 81.6721 46.2718 81.6466 47 81.5963V81.6721H82.25L94 94H45.5312V93.9938C45.2869 93.9979 45.0421 94 44.7969 94C20.0562 94 0 72.9574 0 47C0 21.0426 20.0562 0 44.7969 0C69.5375 0 89.5938 21.0426 89.5938 47C89.5938 55.0878 87.6466 62.6986 84.2174 69.3443H70.0672C74.9194 63.3098 77.8438 55.5132 77.8438 47C77.8438 27.8511 63.0482 12.3279 44.7969 12.3279Z" fill="black"/>
<path d="M31.5781 27.7377C28.739 27.7377 26.4375 30.1524 26.4375 33.1311V47C26.4375 49.9787 28.739 52.3934 31.5781 52.3934C34.4172 52.3934 36.7188 49.9787 36.7188 47V33.1311C36.7188 30.1524 34.4172 27.7377 31.5781 27.7377Z" fill="black"/>
<path d="M50.6719 27.7377C47.8328 27.7377 45.5312 30.1524 45.5312 33.1311V47C45.5312 49.9787 47.8328 52.3934 50.6719 52.3934C53.511 52.3934 55.8125 49.9787 55.8125 47V33.1311C55.8125 30.1524 53.511 27.7377 50.6719 27.7377Z" fill="black"/>
<path d="M317.966 24C322.314 24 326.5 24.7194 330.523 26.1572C334.547 27.5297 338.149 29.588 341.329 32.333C344.509 35.0781 346.943 38.4447 348.631 42.4316L338.409 46.0586C336.008 41.7449 333.054 38.6405 329.55 36.7451C326.045 34.8497 322.313 33.9023 318.354 33.9023C314.071 33.9024 310.145 34.9809 306.575 37.1377C303.071 39.2292 300.28 42.1702 298.203 45.9609C296.191 49.6864 295.186 54.0328 295.186 59C295.186 63.9673 296.191 68.3468 298.203 72.1377C300.215 75.8632 302.941 78.8041 306.381 80.9609C309.885 83.0524 313.779 84.0986 318.062 84.0986C321.113 84.0986 323.969 83.576 326.63 82.5303C329.291 81.4845 331.627 80.0458 333.639 78.2158C335.65 76.3205 337.241 74.1642 338.409 71.7461V64.8828H318.842V55.373H349.993V72.4316C348.436 76.4839 346.099 80.1442 342.984 83.4121C339.934 86.6801 336.267 89.2618 331.983 91.1572C327.765 93.0526 323.093 94.0009 317.966 94.001C313.163 94.001 308.652 93.1515 304.434 91.4521C300.28 89.7528 296.614 87.3667 293.434 84.2949C290.318 81.1576 287.852 77.4642 286.035 73.2158C284.283 68.9021 283.406 64.1634 283.406 59C283.406 53.9021 284.283 49.2288 286.035 44.9805C287.852 40.6668 290.318 36.9409 293.434 33.8037C296.614 30.6666 300.28 28.2481 304.434 26.5488C308.652 24.8495 313.163 24 317.966 24ZM386.653 24C393.338 24.0001 399.373 25.6012 404.76 28.8037C410.211 32.0064 414.365 36.6148 417.221 42.6279L407.777 45.8633C406.285 42.9875 404.371 40.6671 402.034 38.9023C399.698 37.1376 397.232 35.8625 394.636 35.0781C392.04 34.2938 389.476 33.9024 386.945 33.9023C382.532 33.9023 378.573 34.9476 375.068 37.0391C371.564 39.0652 368.806 41.9739 366.794 45.7646C364.847 49.4901 363.873 53.9021 363.873 59C363.873 64.0326 364.847 68.4445 366.794 72.2354C368.806 75.9608 371.564 78.8694 375.068 80.9609C378.573 83.0525 382.532 84.0986 386.945 84.0986C389.541 84.0986 392.169 83.7061 394.83 82.9219C397.556 82.0722 400.119 80.6345 402.521 78.6084C404.987 76.5169 407.032 73.7394 408.654 70.2754L417.999 73.3145C415.014 80.3731 410.763 85.6023 405.247 89.001C399.731 92.3343 393.533 94.0009 386.653 94.001C381.851 94.001 377.34 93.1515 373.121 91.4521C368.968 89.7528 365.301 87.3336 362.121 84.1963C359.006 81.0591 356.54 77.3665 354.723 73.1182C352.97 68.8044 352.094 64.0981 352.094 59C352.094 53.8367 352.97 49.1311 354.723 44.8828C356.54 40.569 359.006 36.8756 362.121 33.8037C365.301 30.6666 368.968 28.2481 373.121 26.5488C377.34 24.8495 381.851 24 386.653 24ZM235.104 68.4092C235.104 71.8731 235.786 74.7819 237.148 77.1348C238.576 79.4877 240.491 81.2532 242.893 82.4297C245.294 83.5407 248.019 84.0956 251.069 84.0957C254.249 84.0957 257.04 83.5407 259.441 82.4297C261.843 81.2532 263.725 79.4877 265.088 77.1348C266.516 74.7818 267.229 71.8732 267.229 68.4092V24.6836H278.717V68.1152C278.717 72.4943 277.938 76.318 276.381 79.5859C274.888 82.7885 272.811 85.4682 270.15 87.625C267.554 89.7818 264.602 91.3839 261.292 92.4297C258.047 93.4754 254.607 93.998 250.973 93.998C246.17 93.998 241.692 93.0507 237.538 91.1553C233.384 89.2598 230.01 86.4159 227.414 82.625C224.883 78.7688 223.617 73.9322 223.617 68.1152V24.6836H235.104V68.4092ZM195.441 43.6016C200.049 43.6016 204.106 44.6145 207.61 46.6406C211.115 48.6667 213.84 51.51 215.787 55.1699C217.799 58.7647 218.806 62.9484 218.806 67.7197C218.806 68.504 218.773 69.3536 218.708 70.2686C218.643 71.1182 218.546 72.0333 218.416 73.0137H183.76C184.084 75.3013 184.798 77.2948 185.901 78.9941C187.07 80.6281 188.53 81.9024 190.282 82.8174C192.034 83.7324 194.046 84.1904 196.317 84.1904C199.043 84.1904 201.477 83.6346 203.619 82.5234C205.826 81.4123 207.351 79.9413 208.194 78.1113L217.832 81.3467C215.885 85.2683 212.997 88.3735 209.168 90.6611C205.339 92.8834 201.055 93.9941 196.317 93.9941C191.45 93.9941 187.167 92.9156 183.468 90.7588C179.833 88.6019 176.977 85.5955 174.9 81.7393C172.889 77.883 171.883 73.438 171.883 68.4053C171.883 63.6342 172.889 59.3856 174.9 55.6602C176.912 51.9348 179.703 48.9938 183.272 46.8369C186.842 44.68 190.898 43.6016 195.441 43.6016ZM144.674 24.6836C150.125 24.6836 154.604 25.6309 158.108 27.5264C161.678 29.3564 164.339 31.8736 166.091 35.0762C167.843 38.2134 168.719 41.6447 168.719 45.3701C168.719 47.8536 168.298 50.3045 167.454 52.7227C166.61 55.1408 165.247 57.3959 163.365 59.4873C161.483 61.5134 158.984 63.1478 155.869 64.3896C155.063 64.7006 154.208 64.9685 153.307 65.1973L170.18 93.3115H157.135L141.434 66.1543H129.585V93.3115H118V24.6836H144.674ZM195.441 53.21C193.624 53.21 191.905 53.6671 190.282 54.582C188.66 55.497 187.264 56.7714 186.096 58.4053C184.992 59.9739 184.279 61.8373 183.954 63.9941H206.831C206.766 61.9681 206.215 60.1378 205.177 58.5039C204.138 56.8699 202.775 55.5947 201.088 54.6797C199.401 53.6993 197.518 53.21 195.441 53.21ZM129.585 56.4482H144.674C147.529 56.4482 149.834 56.0235 151.586 55.1738C153.403 54.2588 154.766 52.9845 155.675 51.3506C156.583 49.6513 157.037 47.6576 157.037 45.3701C157.037 41.9715 156.031 39.2918 154.02 37.3311C152.008 35.3703 148.892 34.3897 144.674 34.3896H129.585V56.4482Z" fill="black"/>
</g>
<defs>
<clipPath id="clip0_19892_1484">
<rect width="418" height="94" fill="white"/>
</clipPath>
</defs>
</svg>
